<svg id="Layer_1" data-name="Layer 1" xmlns="http://www.w3.org/2000/svg" viewBox="0 0 36 36"><defs><style>.cls-1{fill:#673ab7;}.cls-2{fill:#fff;}</style></defs><path class="cls-1" d="M42,37a5,5,0,0,1-5,5H11a5,5,0,0,1-5-5V11a5,5,0,0,1,5-5H37a5,5,0,0,1,5,5Z" transform="translate(-6 -6)"/><path class="cls-2" d="M33,25.6a4.93,4.93,0,0,0-2.8-1.85A4.5,4.5,0,0,0,32.17,22,5.88,5.88,0,0,0,33,18.82a5.72,5.72,0,0,0-2.34-4.93A9.84,9.84,0,0,0,24.35,12H15V36H25.43c2.83,0,5-.63,6.41-1.8A6.47,6.47,0,0,0,34,28.9,5.48,5.48,0,0,0,33,25.6ZM21,16h4.25a2.75,2.75,0,0,1,0,5.5H21Zm5,16H21V26h5a3,3,0,0,1,0,6Z" transform="translate(-6 -6)"/></svg>