<svg id="Layer_1" data-name="Layer 1" xmlns="http://www.w3.org/2000/svg" viewBox="0 0 366.18 366.18"><defs><style>.cls-1{fill:#c00;}.cls-2{fill:#fff;fill-rule:evenodd;}</style></defs><circle class="cls-1" cx="183.09" cy="183.09" r="183.09"/><path class="cls-2" d="M399,224.8v14.69h26.54c5.44,0,14.77-4,15.09-15.1v-5.68a15,15,0,0,0-15.09-15.1H412.33V196.8h26.21V182H413.39c-6.5,0-15.18,5.35-15.18,15.34v5.11c0,10,8.6,15.09,15.18,15.09,18.26.08-4.39,0,12.49,0v7.15m-169-3.49S271,220,271,201.67s-17.2-20-17.2-20h-31v57.87h15.59v-14l13.47,14h23.05Zm-6-11.85H238.41V196.15H250.9s3.49,1.3,3.49,6.57S250.82,209.38,250.82,209.38ZM309.5,182H293.68c-11.29,0-15.1,10.22-15.1,15.09v42.37h15.83V229.34h14.85v10.15H324.6V197.12C324.6,184.79,313.4,182,309.5,182ZM309.26,213H294.33v-14s0-3.17,4.94-3.17h5.44c4.39,0,4.47,3.17,4.47,3.17v14Z" transform="translate(-98.23 -29.82)"/><path class="cls-2" d="M331.82,182H348.3v57.46H331.82Z" transform="translate(-98.23 -29.82)"/><path class="cls-2" d="M371.43,224.63V182H355v57.46h38.55V224.63Z" transform="translate(-98.23 -29.82)"/><path class="cls-2" d="M125,239.49h64.11s-12.25-55.92,28.33-78.57c8.84-4.3,37-20.37,83.1,13.72,1.46-1.22,2.84-2.19,2.84-2.19s-42.2-42.12-89.19-37.42c-23.62,2.11-52.67,23.62-69.71,52S125,239.49,125,239.49Z" transform="translate(-98.23 -29.82)"/><path class="cls-2" d="M125,239.49h64.11s-12.25-55.92,28.33-78.57c8.84-4.3,37-20.37,83.1,13.72,1.46-1.22,2.84-2.19,2.84-2.19s-42.2-42.12-89.19-37.42c-23.62,2.11-52.67,23.62-69.71,52S125,239.49,125,239.49Z" transform="translate(-98.23 -29.82)"/><path class="cls-2" d="M125,239.49h64.11s-12.25-55.92,28.33-78.57c8.84-4.3,37-20.37,83.1,13.72,1.46-1.22,2.84-2.19,2.84-2.19s-42.2-42.12-89.19-37.42c-23.7,2.11-52.75,23.62-69.8,52S125,239.49,125,239.49Zm133.58-99.91.33-5.44a40.09,40.09,0,0,0-7.87-2.84l-.33,5.36C253.42,137.55,256,138.52,258.61,139.58Z" transform="translate(-98.23 -29.82)"/><path class="cls-2" d="M250.9,156.79l-.32,5.11a44.81,44.81,0,0,1,8,1l.33-5a56.85,56.85,0,0,0-8-1.05Zm-30-25.33h.81l-1.63-5a65.82,65.82,0,0,0-7.79.49l1.54,4.79a69.7,69.7,0,0,1,7.07-.33Zm3.89,29.87,1.87,5.6a50.32,50.32,0,0,1,7.06-2.84l-1.79-5.36A60.79,60.79,0,0,0,224.77,161.33ZM187.93,140l-3.66-5.6c-2,1.05-4.14,2.19-6.33,3.49l3.74,5.68C183.79,142.26,185.81,141,187.93,140Zm16.63,36.52,3.9,5.84a44.87,44.87,0,0,1,4.79-5.76l-3.66-5.52a44.79,44.79,0,0,0-5,5.44ZM192.8,202.64l6.57,5.19a64.33,64.33,0,0,1,1.7-9.49l-5.84-4.63A74.86,74.86,0,0,0,192.8,202.64Zm-35.55-38.55-5.77-5c-2.11,2-4.13,4.06-6,6.09l6.25,5.35a81.23,81.23,0,0,1,5.52-6.41Zm-24.51,36.28L123.4,197c-1.54,3.49-3.24,7.55-4.05,9.74l9.33,3.41C129.73,207.35,131.44,203.37,132.74,200.37Zm58.84,22.88a83.07,83.07,0,0,0,1,10.23l9.74,3.49c-.73-3.16-1.46-6.74-1.95-10.55Z" transform="translate(-98.23 -29.82)"/></svg>