<svg id="Layer_1" data-name="Layer 1" xmlns="http://www.w3.org/2000/svg" viewBox="0 0 38.4 38.16"><defs><style>.cls-1{fill:#212529;}.cls-2{fill:#f16a64;}</style></defs><path class="cls-1" d="M12.3,22.8a1.1,1.1,0,0,0,.6,1l5,3a.73.73,0,0,0,1.2-.6V20.6c0-.2-.2-.6-.4-.6l-5.2-3.4a1,1,0,0,0-1.2.8Z" transform="translate(-0.3)"/><path class="cls-1" d="M19.9,20.4V26a.73.73,0,0,0,1.2.6l5-3a1.1,1.1,0,0,0,.6-1V17.4a.73.73,0,0,0-1.2-.6l-5.2,2.8A1,1,0,0,0,19.9,20.4Z" transform="translate(-0.3)"/><path class="cls-2" d="M25.5,15.8,19.9,19a.61.61,0,0,1-.8,0l-5.6-3.2a.77.77,0,0,1,0-1.4l5.6-3.2a.61.61,0,0,1,.8,0l5.6,3.2C26.1,14.6,26.1,15.4,25.5,15.8Z" transform="translate(-0.3)"/><path class="cls-1" d="M.3,34a1.1,1.1,0,0,0,.6,1l5,3a.73.73,0,0,0,1.2-.6V31.8c0-.2-.2-.6-.4-.6l-5.2-3a.73.73,0,0,0-1.2.6V34Z" transform="translate(-0.3)"/><path class="cls-1" d="M7.9,31.4V37a.73.73,0,0,0,1.2.6l5-3a1.1,1.1,0,0,0,.6-1V28a.73.73,0,0,0-1.2-.6L8.3,30.8C8.1,31,7.9,31.2,7.9,31.4Z" transform="translate(-0.3)"/><path class="cls-2" d="M13.5,26.8,7.9,30a.61.61,0,0,1-.8,0L1.5,26.8a.77.77,0,0,1,0-1.4l5.6-3.2a.61.61,0,0,1,.8,0l5.6,3.2C13.9,25.8,13.9,26.6,13.5,26.8Z" transform="translate(-0.3)"/><path class="cls-1" d="M24.5,34a1.1,1.1,0,0,0,.6,1l5,3a.73.73,0,0,0,1.2-.6V31.8c0-.2-.2-.6-.4-.6l-5.2-3a.73.73,0,0,0-1.2.6Z" transform="translate(-0.3)"/><path class="cls-1" d="M31.9,31.4V37a.73.73,0,0,0,1.2.6l5-3a1.1,1.1,0,0,0,.6-1V28a.73.73,0,0,0-1.2-.6l-5.2,3.4C32.1,31,31.9,31.2,31.9,31.4Z" transform="translate(-0.3)"/><path class="cls-2" d="M37.5,26.8,31.9,30a.61.61,0,0,1-.8,0l-5.6-3.2a.77.77,0,0,1,0-1.4l5.6-3.2a.61.61,0,0,1,.8,0l5.6,3.2C38.1,25.8,38.1,26.6,37.5,26.8Z" transform="translate(-0.3)"/><path class="cls-1" d="M.3,11.8a1.1,1.1,0,0,0,.6,1l5,3A1,1,0,0,0,7.1,15V9.2c0-.2-.2-.6-.4-.6l-5.2-3C.9,5.4.3,5.6.3,6.4Z" transform="translate(-0.3)"/><path class="cls-1" d="M7.9,9.2v5.6a.73.73,0,0,0,1.2.6l5-3a1.1,1.1,0,0,0,.6-1v-5a.73.73,0,0,0-1.2-.6L8.3,8.6C8.1,8.8,7.9,9,7.9,9.2Z" transform="translate(-0.3)"/><path class="cls-2" d="M13.5,4.6,7.9,7.8a.61.61,0,0,1-.8,0L1.5,4.6a.77.77,0,0,1,0-1.4L7.1,0a1.2,1.2,0,0,1,.8.2l5.6,3.2A.75.75,0,0,1,13.5,4.6Z" transform="translate(-0.3)"/><path class="cls-1" d="M24.5,11.8a1.1,1.1,0,0,0,.6,1l5,3a.73.73,0,0,0,1.2-.6v-6c0-.2-.2-.6-.4-.6l-5.2-3a.73.73,0,0,0-1.2.6Z" transform="translate(-0.3)"/><path class="cls-1" d="M31.9,9.2v5.6a.73.73,0,0,0,1.2.6l5-3a1.1,1.1,0,0,0,.6-1v-5a.73.73,0,0,0-1.2-.6L32.3,8.6C32.1,8.8,31.9,9,31.9,9.2Z" transform="translate(-0.3)"/><path class="cls-2" d="M37.5,4.6,31.9,8h-.8L25.5,4.8a.77.77,0,0,1,0-1.4L31.1.2a.61.61,0,0,1,.8,0l5.6,3.2A.62.62,0,0,1,37.5,4.6Z" transform="translate(-0.3)"/></svg>