<svg id="Layer_1" data-name="Layer 1" xmlns="http://www.w3.org/2000/svg" xmlns:xlink="http://www.w3.org/1999/xlink" viewBox="0 0 44 44"><defs><style>.cls-1{fill:none;}.cls-2{clip-path:url(#clip-path);}.cls-3{fill:#212529;}.cls-4{fill:#f05852;}</style><clipPath id="clip-path" transform="translate(-2 -2)"><rect class="cls-1" x="2" y="2" width="44" height="44"/></clipPath></defs><g class="cls-2"><path class="cls-3" d="M36.27,22.9H45.7a.32.32,0,0,0,.3-.3A22.11,22.11,0,0,0,28.75,2.51a.26.26,0,0,0-.22.45,31.49,31.49,0,0,1,7.52,19.71C36,22.82,36.12,22.9,36.27,22.9Z" transform="translate(-2 -2)"/><path class="cls-4" d="M24.18,2h-.44c-5.67,4.34-9.21,12.07-9.58,20.6a.32.32,0,0,0,.3.3h19a.32.32,0,0,0,.3-.3C33.47,14.07,29.86,6.34,24.18,2Z" transform="translate(-2 -2)"/><path class="cls-3" d="M14.46,25.1a.32.32,0,0,0-.3.3C14.53,34,18.07,41.66,23.74,46h.44c5.68-4.34,9.22-12.07,9.59-20.6a.32.32,0,0,0-.3-.3Z" transform="translate(-2 -2)"/><path class="cls-4" d="M36,25.32c-.3,7.73-3,14.79-7.45,19.72-.15.22,0,.52.22.44A22,22,0,0,0,46,25.4a.32.32,0,0,0-.3-.3H36.27A.32.32,0,0,0,36,25.32Z" transform="translate(-2 -2)"/><path class="cls-4" d="M11.73,25.1H2.29a.32.32,0,0,0-.29.3A22,22,0,0,0,19.25,45.48a.25.25,0,0,0,.22-.44c-4.5-4.93-7.23-12-7.52-19.72C12,25.25,11.88,25.1,11.73,25.1Z" transform="translate(-2 -2)"/><path class="cls-3" d="M12,22.67C12.32,15,15,7.89,19.47,3c.14-.22,0-.52-.22-.45A22,22,0,0,0,2,22.6a.32.32,0,0,0,.29.3h9.44C11.88,22.9,12,22.82,12,22.67Z" transform="translate(-2 -2)"/></g></svg>