<svg id="Layer_1" data-name="Layer 1" xmlns="http://www.w3.org/2000/svg" xmlns:xlink="http://www.w3.org/1999/xlink" viewBox="0 0 44.93 38.35"><defs><style>.cls-1{fill:none;}.cls-2{clip-path:url(#clip-path);}.cls-3{fill:#f05852;}.cls-4{fill:#212529;}</style><clipPath id="clip-path" transform="translate(-2.07 -4)"><rect class="cls-1" width="48" height="48"/></clipPath></defs><g class="cls-2"><path class="cls-3" d="M20.2,4h9A2,2,0,0,1,31,6.4L26.6,20.8h4.6A2,2,0,0,1,33,23.6L24,42c-.4.6-1.4.4-1.2-.4l2.2-14H18a1.81,1.81,0,0,1-1.8-2.2L18.4,5.8A1.79,1.79,0,0,1,20.2,4Z" transform="translate(-2.07 -4)"/><path class="cls-4" d="M2.44,16.67l3.2-1.85a.83.83,0,0,1,1.15.5l1.43,6.1,1.64-.94a.82.82,0,0,1,1.23.64l.63,8.5c0,.3-.42.43-.51.1L9.07,24.21,6.58,25.65a.75.75,0,0,1-1.1-.42L2.17,17.69A.74.74,0,0,1,2.44,16.67Z" transform="translate(-2.07 -4)"/><path class="cls-4" d="M46.63,16.67l-3.21-1.85a.81.81,0,0,0-1.14.5l-1.44,6.1-1.64-.94a.82.82,0,0,0-1.23.64l-.63,8.5c0,.3.42.43.52.1L40,24.21l2.5,1.44a.75.75,0,0,0,1.1-.42l3.3-7.54A.75.75,0,0,0,46.63,16.67Z" transform="translate(-2.07 -4)"/></g></svg>