<svg id="Layer_1" data-name="Layer 1" xmlns="http://www.w3.org/2000/svg" xmlns:xlink="http://www.w3.org/1999/xlink" viewBox="0 0 36.05 32.41"><defs><style>.cls-1{fill:#2684ff;}.cls-2{fill:url(#linear-gradient);}</style><linearGradient id="linear-gradient" x1="363.24" y1="-120.47" x2="332.22" y2="-144.68" gradientTransform="matrix(0.58, 0, 0, -0.58, -51.14, -40.25)" gradientUnits="userSpaceOnUse"><stop offset="0.18" stop-color="#0052cc"/><stop offset="1" stop-color="#2684ff"/></linearGradient></defs><path class="cls-1" d="M122.75,15.43a1.14,1.14,0,0,0-1.16,1.14.66.66,0,0,0,0,.2l4.91,29.76A1.57,1.57,0,0,0,128,47.84h23.52a1.17,1.17,0,0,0,1.16-1l4.9-30.09a1.14,1.14,0,0,0-1-1.32l-.2,0Zm20.64,21.5h-7.5l-2-10.62h11.35Z" transform="translate(-121.59 -15.43)"/><path class="cls-2" d="M156.05,26.32H145.21l-1.82,10.62h-7.5L127,47.46a1.62,1.62,0,0,0,1,.38h23.52a1.17,1.17,0,0,0,1.16-1Z" transform="translate(-121.59 -15.43)"/></svg>