<svg id="Layer_1" data-name="Layer 1" xmlns="http://www.w3.org/2000/svg" viewBox="0 0 38 38"><defs><style>.cls-1{fill:#f4511e;}</style></defs><path class="cls-1" d="M42.2,22.1,25.9,5.8A2.73,2.73,0,0,0,24,5h0a2.73,2.73,0,0,0-1.9.8L18.6,9.3l4.1,4.1a2.77,2.77,0,0,1,1.3-.3,3,3,0,0,1,3,3,2.77,2.77,0,0,1-.3,1.3l4,4a2.77,2.77,0,0,1,1.3-.3,3,3,0,1,1-3,3,2.77,2.77,0,0,1,.3-1.3l-4-4c-.1,0-.2.1-.3.1V29.3a2.91,2.91,0,0,1,2,2.8,3,3,0,0,1-6,0,2.91,2.91,0,0,1,2-2.8V18.8A2.91,2.91,0,0,1,21,16a2.77,2.77,0,0,1,.3-1.3l-4.1-4.1L5.8,22.1a2.66,2.66,0,0,0,0,3.8L22.1,42.2h0a2.66,2.66,0,0,0,3.8,0L42.2,25.9a2.66,2.66,0,0,0,0-3.8Z" transform="translate(-5 -5)"/></svg>