<svg id="Layer_1" data-name="Layer 1" xmlns="http://www.w3.org/2000/svg" viewBox="0 0 39.92 38.78"><path d="M21.8,4.2a19.93,19.93,0,0,0-5,38.4.92.92,0,0,0,1.2-1V38.4a8.25,8.25,0,0,1-1.8.2A4.31,4.31,0,0,1,12,34.8a4.15,4.15,0,0,0-1.2-2c-.6-.2-.8-.2-.8-.4,0-.4.6-.4.8-.4,1.2,0,2.2,1.4,2.6,2a3.64,3.64,0,0,0,2.8,2,4,4,0,0,0,1.8-.4A5.07,5.07,0,0,1,20,32c-4.6-1-8-3.6-8-8a9.43,9.43,0,0,1,2.4-6,7.42,7.42,0,0,1-.4-2.8,6.85,6.85,0,0,1,.6-3.2,9,9,0,0,1,5.6,2.6A10.82,10.82,0,0,1,24,14a12.9,12.9,0,0,1,4,.6A8.62,8.62,0,0,1,33.6,12a9.94,9.94,0,0,1,.4,3.2,6.65,6.65,0,0,1-.4,2.8A9,9,0,0,1,36,24c0,4.4-3.4,7-8,8a6.17,6.17,0,0,1,2,4.6v5.2a1.09,1.09,0,0,0,1.4,1A20.08,20.08,0,0,0,21.8,4.2Z" transform="translate(-4.08 -4.06)"/></svg>