<svg xmlns="http://www.w3.org/2000/svg" height="800" width="1200" viewBox="-42.15 -85.56675 365.3 513.4005"><path fill="#1b75bb" d="M238.821 137.994c0-.05 0-.05 0 0L.051 0H0v82.217c0 19.138 10.5 35.809 25.987 44.647l238.771 137.944h.05v-82.242c-.025-19.113-10.475-35.758-25.987-44.572zM25.61 182.314c.05 0 .05 0 0 0-13.951-8.008-23.772-22.26-25.61-39.006v121.425l84.207-48.6zM239.224 82.52s-.05 0 0 0c13.95 8.007 23.771 22.26 25.61 38.98V.05l-84.207 48.6z"/><path d="M60.486 320.409h23.318v-8.21H60.486v-10.298h25.408v-8.89H49.91v48.097h36.488v-8.889H60.46zm29.26-18.508h14.43v39.207h10.55v-39.207h14.43v-8.89h-39.41zm-59.075 23.318h-.151L10.45 292.96H0v48.097h9.871V308.85h.176l20.02 32.207h10.55V292.96h-9.87v32.258zm169.245-33.366c-14.908 0-23.62 11.13-23.62 25.408 0 13.85 8.737 24.98 23.62 24.98 14.907 0 23.62-11.08 23.62-24.98.025-14.328-8.713-25.408-23.62-25.408zm0 41.449c-9.519 0-13.07-8.109-13.07-16.091 0-8.41 3.551-16.52 13.07-16.52 9.518 0 13.069 8.11 13.069 16.52 0 8.008-3.55 16.09-13.07 16.09zm-42.079-20.523c-12.061-3.072-14.328-3.55-14.328-7.277 0-4.03 3.928-5.44 7.278-5.44 5.061 0 9.14 1.46 9.518 7.278h10.25c0-11.13-9.192-15.462-19.24-15.462-8.687 0-17.98 4.71-17.98 14.53 0 9.04 7.203 11.76 14.33 13.699 7.05 1.888 14.277 2.77 14.277 7.932 0 4.91-5.64 6.018-9.367 6.018-5.641 0-10.652-2.518-10.652-8.889h-10.25c-.15 11.86 9.822 17.099 20.499 17.099 13.069 0 20.019-6.598 20.019-15.412-.076-11.004-10.828-13.195-14.354-14.076zm83.477-19.818h-10.551v48.097h33.97v-8.89h-23.419zM281 335.392c0 3.198-2.518 5.64-5.691 5.64-3.198 0-5.741-2.518-5.741-5.64 0-3.072 2.568-5.59 5.741-5.59 3.223.05 5.691 2.518 5.691 5.59zm-10.047 0c0 2.518 1.838 4.432 4.33 4.432 2.469 0 4.231-1.99 4.231-4.432 0-2.518-1.788-4.508-4.28-4.508-2.443.076-4.281 2.065-4.281 4.508zm3.45 2.946h-1.31v-5.59c.529-.1 1.209-.151 2.14-.151 1.058 0 1.511.15 1.94.428.302.252.528.68.528 1.209 0 .63-.478 1.108-1.158 1.31v.05c.529.2.83.629 1.058 1.36.15.83.251 1.208.428 1.41h-1.41c-.152-.202-.252-.73-.429-1.36-.1-.63-.428-.882-1.158-.882h-.63zm0-3.147h.629c.73 0 1.31-.252 1.31-.831 0-.53-.378-.831-1.21-.831-.377 0-.578.05-.73.05z"/></svg>